<?xml version="1.0" ?>
<svg height="30px" version="1.1" viewBox="0 0 30 30" width="30px" xmlns="http://www.w3.org/2000/svg" xmlns:sketch="http://www.bohemiancoding.com/sketch/ns" xmlns:xlink="http://www.w3.org/1999/xlink">
    <g fill="none" fill-rule="evenodd" id="arrow" stroke="none" stroke-width="1">
        <g fill="#616161" id="arrow_130-next-forward-onward-direction-right" transform="translate(-90.000000, -765.000000)">
            <path d="M117,779.5 C117,772.596441 111.403559,767 104.5,767 C97.5964406,767 92,772.596441 92,779.5 C92,786.403559 97.5964406,792 104.5,792 C111.403559,792 117,786.403559 117,779.5 Z M93,779.5 C93,773.148725 98.1487254,768 104.5,768 C110.851275,768 116,773.148725 116,779.5 C116,785.851275 110.851275,791 104.5,791 C98.1487254,791 93,785.851275 93,779.5 Z M100.747564,785.934509 C100.674574,785.976185 100.590068,786 100.5,786 C100.223858,786 100,785.776142 100,785.5 L100,773.5 C100,773.223858 100.223858,773 100.5,773 C100.590068,773 100.674574,773.023815 100.747564,773.065491 L111.733004,779.057549 C111.817317,779.101851 111.88992,779.170689 111.938948,779.260574 C112.071179,779.502998 111.98185,779.806716 111.739426,779.938948 L100.747564,785.934509 Z M101,784.657729 L110.455836,779.5 L101,774.342271 L101,784.657729 Z"/>
        </g>
    </g>
</svg>